<?xml version="1.0" encoding="iso-8859-1"?>
<!-- Generator: Adobe Illustrator 19.0.0, SVG Export Plug-In . SVG Version: 6.00 Build 0)  -->
<svg version="1.1" id="Layer_1" xmlns="http://www.w3.org/2000/svg" xmlns:xlink="http://www.w3.org/1999/xlink" x="0px" y="0px"
	 viewBox="0 0 512 512" style="enable-background:new 0 0 512 512;" xml:space="preserve">
<g>
	<g>
		<path d="M358.315,177.296L144.327,391.284c-11.609,11.609-11.609,30.497,0,42.106c10.407,10.407,26.662,11.477,38.281,3.224
			l217.513-217.513L358.315,177.296z"/>
	</g>
</g>
<g>
	<g>
		<path d="M120.715,457.001c-12.985-12.985-19.115-30.264-18.408-47.309c-17.045,0.708-34.324-5.423-47.31-18.409
			c-7.435-7.435-12.61-16.283-15.556-25.685l-12.837,47.647l72.147,72.147l47.647-12.837
			C136.999,469.611,128.151,464.437,120.715,457.001z"/>
	</g>
</g>
<g>
	<g>
		<polygon points="16.583,450.447 0,512 61.552,495.417 		"/>
	</g>
</g>
<g>
	<g>
		<rect x="361.415" y="30.605" transform="matrix(0.7071 -0.7071 0.7071 0.7071 29.1061 311.9788)" width="59.458" height="180.5"/>
	</g>
</g>
<g>
	<g>
		<path d="M292.898,111.879L75.385,329.392c-8.253,11.619-7.184,27.873,3.224,38.281c11.609,11.609,30.497,11.609,42.106,0
			l213.988-213.988L292.898,111.879z"/>
	</g>
</g>
<g>
	<g>
		<path d="M500.698,63.952l-52.65-52.65c-15.07-15.07-39.502-15.07-54.573,0l-11.313,11.313l107.223,107.223l11.313-11.313
			C515.768,103.455,515.768,79.023,500.698,63.952z"/>
	</g>
</g>
<g>
</g>
<g>
</g>
<g>
</g>
<g>
</g>
<g>
</g>
<g>
</g>
<g>
</g>
<g>
</g>
<g>
</g>
<g>
</g>
<g>
</g>
<g>
</g>
<g>
</g>
<g>
</g>
<g>
</g>
</svg>
